<svg xmlns="http://www.w3.org/2000/svg" viewBox="0 0 512 512">
<defs>
<linearGradient id="bg" x1="0%" y1="0%" x2="100%" y2="100%">
<stop offset="0%" style="stop-color:#1a0533"/>
<stop offset="100%" style="stop-color:#0a0a1f"/>
</linearGradient>
<linearGradient id="orb" x1="0%" y1="0%" x2="100%" y2="100%">
<stop offset="0%" style="stop-color:#c8a2f5"/>
<stop offset="50%" style="stop-color:#7c5cfc"/>
<stop offset="100%" style="stop-color:#4a1fa8"/>
</linearGradient>
<radialGradient id="glow" cx="45%" cy="35%">
<stop offset="0%" style="stop-color:#fff;stop-opacity:0.4"/>
<stop offset="100%" style="stop-color:#fff;stop-opacity:0"/>
</radialGradient>
</defs>
<rect width="512" height="512" rx="115" fill="url(#bg)"/>
<circle cx="80" cy="80" r="3" fill="#c8a2f5" opacity="0.6"/>
<circle cx="430" cy="60" r="2" fill="#fff" opacity="0.5"/>
<circle cx="460" cy="180" r="3" fill="#c8a2f5" opacity="0.4"/>
<circle cx="60" cy="400" r="2" fill="#fff" opacity="0.5"/>
<circle cx="450" cy="420" r="3" fill="#c8a2f5" opacity="0.6"/>
<circle cx="120" cy="200" r="2" fill="#fff" opacity="0.3"/>
<circle cx="380" cy="300" r="2" fill="#c8a2f5" opacity="0.4"/>
<circle cx="256" cy="240" r="130" fill="url(#orb)" opacity="0.95"/>
<circle cx="256" cy="240" r="130" fill="url(#glow)"/>
<ellipse cx="256" cy="240" rx="130" ry="130" fill="none" stroke="#c8a2f5" stroke-width="2" opacity="0.4"/>
<circle cx="220" cy="210" r="4" fill="#fff" opacity="0.8"/>
<circle cx="270" cy="195" r="3" fill="#fff" opacity="0.7"/>
<circle cx="300" cy="230" r="4" fill="#fff" opacity="0.8"/>
<circle cx="280" cy="265" r="3" fill="#fff" opacity="0.6"/>
<circle cx="235" cy="255" r="4" fill="#fff" opacity="0.7"/>
<line x1="220" y1="210" x2="270" y2="195" stroke="#fff" stroke-width="1" opacity="0.3"/>
<line x1="270" y1="195" x2="300" y2="230" stroke="#fff" stroke-width="1" opacity="0.3"/>
<line x1="300" y1="230" x2="280" y2="265" stroke="#fff" stroke-width="1" opacity="0.3"/>
<line x1="280" y1="265" x2="235" y2="255" stroke="#fff" stroke-width="1" opacity="0.3"/>
<line x1="235" y1="255" x2="220" y2="210" stroke="#fff" stroke-width="1" opacity="0.3"/>
<rect x="206" y="365" width="100" height="18" rx="9" fill="#7c5cfc" opacity="0.7"/>
<rect x="176" y="378" width="160" height="14" rx="7" fill="#c8a2f5" opacity="0.5"/>
<polygon points="256,60 263,82 286,82 268,95 275,117 256,104 237,117 244,95 226,82 249,82" fill="#f5c842" opacity="0.9"/>
</svg>
